<svg version="1.1" viewBox="0.0 0.0 1024.0 768.0" fill="none" stroke="none" stroke-linecap="square" stroke-miterlimit="10" xmlns:xlink="http://www.w3.org/1999/xlink" xmlns="http://www.w3.org/2000/svg"><clipPath id="p.0"><path d="m0 0l1024.0 0l0 768.0l-1024.0 0l0 -768.0z" clip-rule="nonzero"/></clipPath><g clip-path="url(#p.0)"><path fill="#000000" fill-opacity="0.0" d="m0 0l1024.0 0l0 768.0l-1024.0 0z" fill-rule="evenodd"/><path fill="#000000" d="m255.1181 113.47153l0 0c0 -47.291595 38.337433 -85.629005 85.62903 -85.629005l342.50574 0l0 0c22.710266 0 44.490295 9.021601 60.54889 25.080156c16.058533 16.058556 25.08014 37.83863 25.08014 60.54885l0 541.0569c0 47.291626 -38.337402 85.62903 -85.62903 85.62903l-342.50574 0c-47.291595 0 -85.62903 -38.337402 -85.62903 -85.62903z" fill-rule="evenodd"/><path stroke="#ffffff" stroke-width="24.0" stroke-linejoin="round" stroke-linecap="butt" d="m255.1181 113.47153l0 0c0 -47.291595 38.337433 -85.629005 85.62903 -85.629005l342.50574 0l0 0c22.710266 0 44.490295 9.021601 60.54889 25.080156c16.058533 16.058556 25.08014 37.83863 25.08014 60.54885l0 541.0569c0 47.291626 -38.337402 85.62903 -85.62903 85.62903l-342.50574 0c-47.291595 0 -85.62903 -38.337402 -85.62903 -85.62903z" fill-rule="evenodd"/><path fill="#000000" d="m425.32285 214.32603l0 0c0 -15.957138 12.935822 -28.89296 28.892944 -28.89296l115.56839 0l0 0c7.662903 0 15.011963 3.0440674 20.43042 8.462555c5.418518 5.4184723 8.462585 12.767517 8.462585 20.430405l0 339.3479c0 15.957153 -12.935852 28.893005 -28.893005 28.893005l-115.56839 0c-15.957123 0 -28.892944 -12.935852 -28.892944 -28.893005z" fill-rule="evenodd"/><path stroke="#ffffff" stroke-width="24.0" stroke-linejoin="round" stroke-linecap="butt" d="m425.32285 214.32603l0 0c0 -15.957138 12.935822 -28.89296 28.892944 -28.89296l115.56839 0l0 0c7.662903 0 15.011963 3.0440674 20.43042 8.462555c5.418518 5.4184723 8.462585 12.767517 8.462585 20.430405l0 339.3479c0 15.957153 -12.935852 28.893005 -28.893005 28.893005l-115.56839 0c-15.957123 0 -28.892944 -12.935852 -28.892944 -28.893005z" fill-rule="evenodd"/><path fill="#000000" fill-opacity="0.0" d="m255.1181 384.0l170.20474 0" fill-rule="evenodd"/><path stroke="#ffffff" stroke-width="24.0" stroke-linejoin="round" stroke-linecap="butt" d="m255.1181 384.0l170.20474 0" fill-rule="evenodd"/><path fill="#000000" fill-opacity="0.0" d="m598.6772 384.0l170.20471 0" fill-rule="evenodd"/><path stroke="#ffffff" stroke-width="24.0" stroke-linejoin="round" stroke-linecap="butt" d="m598.6772 384.0l170.20471 0" fill-rule="evenodd"/></g></svg>